<mxfile host="Electron" agent="Mozilla/5.0 (X11; Linux x86_64) AppleWebKit/537.36 (KHTML, like Gecko) draw.io/26.1.1 Chrome/132.0.6834.210 Electron/34.5.0 Safari/537.36" version="26.1.1">
  <diagram name="Страница — 1" id="JYpf3R4Pv6nbm8xhpjm3">
    <mxGraphModel dx="1430" dy="851" grid="1" gridSize="10" guides="1" tooltips="1" connect="1" arrows="1" fold="1" page="1" pageScale="1" pageWidth="827" pageHeight="1169" math="0" shadow="0">
      <root>
        <mxCell id="0" />
        <mxCell id="1" parent="0" />
        <mxCell id="pGWEJejXz1v_ziVK3wCz-8" value="" style="shape=umlLifeline;perimeter=lifelinePerimeter;whiteSpace=wrap;html=1;container=1;dropTarget=0;collapsible=0;recursiveResize=0;outlineConnect=0;portConstraint=eastwest;newEdgeStyle={&quot;curved&quot;:0,&quot;rounded&quot;:0};participant=umlActor;" vertex="1" parent="1">
          <mxGeometry x="70" y="300" width="25" height="580" as="geometry" />
        </mxCell>
        <mxCell id="pGWEJejXz1v_ziVK3wCz-14" value="" style="html=1;points=[[0,0,0,0,5],[0,1,0,0,-5],[1,0,0,0,5],[1,1,0,0,-5]];perimeter=orthogonalPerimeter;outlineConnect=0;targetShapes=umlLifeline;portConstraint=eastwest;newEdgeStyle={&quot;curved&quot;:0,&quot;rounded&quot;:0};" vertex="1" parent="pGWEJejXz1v_ziVK3wCz-8">
          <mxGeometry x="7.5" y="70" width="10" height="500" as="geometry" />
        </mxCell>
        <mxCell id="pGWEJejXz1v_ziVK3wCz-33" value="" style="shape=umlDestroy;whiteSpace=wrap;html=1;strokeWidth=3;targetShapes=umlLifeline;" vertex="1" parent="pGWEJejXz1v_ziVK3wCz-8">
          <mxGeometry x="-2" y="564" width="30" height="30" as="geometry" />
        </mxCell>
        <mxCell id="pGWEJejXz1v_ziVK3wCz-9" value="front" style="shape=umlLifeline;perimeter=lifelinePerimeter;whiteSpace=wrap;html=1;container=1;dropTarget=0;collapsible=0;recursiveResize=0;outlineConnect=0;portConstraint=eastwest;newEdgeStyle={&quot;curved&quot;:0,&quot;rounded&quot;:0};participant=umlBoundary;" vertex="1" parent="1">
          <mxGeometry x="200" y="300" width="50" height="590" as="geometry" />
        </mxCell>
        <mxCell id="pGWEJejXz1v_ziVK3wCz-16" value="" style="html=1;points=[[0,0,0,0,5],[0,1,0,0,-5],[1,0,0,0,5],[1,1,0,0,-5]];perimeter=orthogonalPerimeter;outlineConnect=0;targetShapes=umlLifeline;portConstraint=eastwest;newEdgeStyle={&quot;curved&quot;:0,&quot;rounded&quot;:0};" vertex="1" parent="pGWEJejXz1v_ziVK3wCz-9">
          <mxGeometry x="20" y="70" width="10" height="500" as="geometry" />
        </mxCell>
        <mxCell id="pGWEJejXz1v_ziVK3wCz-17" value="backend" style="shape=umlLifeline;perimeter=lifelinePerimeter;whiteSpace=wrap;html=1;container=1;dropTarget=0;collapsible=0;recursiveResize=0;outlineConnect=0;portConstraint=eastwest;newEdgeStyle={&quot;curved&quot;:0,&quot;rounded&quot;:0};" vertex="1" parent="1">
          <mxGeometry x="329" y="308" width="100" height="692" as="geometry" />
        </mxCell>
        <mxCell id="pGWEJejXz1v_ziVK3wCz-24" value="" style="html=1;points=[[0,0,0,0,5],[0,1,0,0,-5],[1,0,0,0,5],[1,1,0,0,-5]];perimeter=orthogonalPerimeter;outlineConnect=0;targetShapes=umlLifeline;portConstraint=eastwest;newEdgeStyle={&quot;curved&quot;:0,&quot;rounded&quot;:0};" vertex="1" parent="pGWEJejXz1v_ziVK3wCz-17">
          <mxGeometry x="45" y="70" width="10" height="600" as="geometry" />
        </mxCell>
        <mxCell id="pGWEJejXz1v_ziVK3wCz-56" value="" style="html=1;points=[[0,0,0,0,5],[0,1,0,0,-5],[1,0,0,0,5],[1,1,0,0,-5]];perimeter=orthogonalPerimeter;outlineConnect=0;targetShapes=umlLifeline;portConstraint=eastwest;newEdgeStyle={&quot;curved&quot;:0,&quot;rounded&quot;:0};" vertex="1" parent="pGWEJejXz1v_ziVK3wCz-17">
          <mxGeometry x="51" y="182" width="10" height="38" as="geometry" />
        </mxCell>
        <mxCell id="pGWEJejXz1v_ziVK3wCz-94" value="" style="html=1;points=[[0,0,0,0,5],[0,1,0,0,-5],[1,0,0,0,5],[1,1,0,0,-5]];perimeter=orthogonalPerimeter;outlineConnect=0;targetShapes=umlLifeline;portConstraint=eastwest;newEdgeStyle={&quot;curved&quot;:0,&quot;rounded&quot;:0};" vertex="1" parent="pGWEJejXz1v_ziVK3wCz-17">
          <mxGeometry x="52" y="430" width="10" height="50" as="geometry" />
        </mxCell>
        <mxCell id="pGWEJejXz1v_ziVK3wCz-25" value="wsConnect()&lt;div&gt;ws&lt;/div&gt;" style="html=1;verticalAlign=bottom;endArrow=block;curved=0;rounded=0;entryX=0;entryY=0;entryDx=0;entryDy=5;" edge="1" target="pGWEJejXz1v_ziVK3wCz-24" parent="1" source="pGWEJejXz1v_ziVK3wCz-16">
          <mxGeometry relative="1" as="geometry">
            <mxPoint x="304" y="375" as="sourcePoint" />
          </mxGeometry>
        </mxCell>
        <mxCell id="pGWEJejXz1v_ziVK3wCz-27" value="queue" style="shape=umlLifeline;perimeter=lifelinePerimeter;whiteSpace=wrap;html=1;container=1;dropTarget=0;collapsible=0;recursiveResize=0;outlineConnect=0;portConstraint=eastwest;newEdgeStyle={&quot;curved&quot;:0,&quot;rounded&quot;:0};" vertex="1" parent="1">
          <mxGeometry x="500" y="300" width="100" height="700" as="geometry" />
        </mxCell>
        <mxCell id="pGWEJejXz1v_ziVK3wCz-29" value="" style="html=1;points=[[0,0,0,0,5],[0,1,0,0,-5],[1,0,0,0,5],[1,1,0,0,-5]];perimeter=orthogonalPerimeter;outlineConnect=0;targetShapes=umlLifeline;portConstraint=eastwest;newEdgeStyle={&quot;curved&quot;:0,&quot;rounded&quot;:0};" vertex="1" parent="pGWEJejXz1v_ziVK3wCz-27">
          <mxGeometry x="45" y="70" width="10" height="40" as="geometry" />
        </mxCell>
        <mxCell id="pGWEJejXz1v_ziVK3wCz-44" value="" style="html=1;points=[[0,0,0,0,5],[0,1,0,0,-5],[1,0,0,0,5],[1,1,0,0,-5]];perimeter=orthogonalPerimeter;outlineConnect=0;targetShapes=umlLifeline;portConstraint=eastwest;newEdgeStyle={&quot;curved&quot;:0,&quot;rounded&quot;:0};" vertex="1" parent="pGWEJejXz1v_ziVK3wCz-27">
          <mxGeometry x="45" y="569" width="10" height="40" as="geometry" />
        </mxCell>
        <mxCell id="pGWEJejXz1v_ziVK3wCz-45" value="" style="html=1;points=[[0,0,0,0,5],[0,1,0,0,-5],[1,0,0,0,5],[1,1,0,0,-5]];perimeter=orthogonalPerimeter;outlineConnect=0;targetShapes=umlLifeline;portConstraint=eastwest;newEdgeStyle={&quot;curved&quot;:0,&quot;rounded&quot;:0};" vertex="1" parent="pGWEJejXz1v_ziVK3wCz-27">
          <mxGeometry x="45" y="130" width="10" height="40" as="geometry" />
        </mxCell>
        <mxCell id="pGWEJejXz1v_ziVK3wCz-30" value="subscribe()" style="html=1;verticalAlign=bottom;endArrow=block;curved=0;rounded=0;" edge="1" parent="1">
          <mxGeometry x="0.0683" width="80" relative="1" as="geometry">
            <mxPoint x="384" y="380" as="sourcePoint" />
            <mxPoint x="545" y="380" as="targetPoint" />
            <mxPoint as="offset" />
          </mxGeometry>
        </mxCell>
        <mxCell id="pGWEJejXz1v_ziVK3wCz-31" value="userOnlineEvent()" style="html=1;verticalAlign=bottom;endArrow=block;curved=0;rounded=0;" edge="1" parent="1">
          <mxGeometry x="0.0683" width="80" relative="1" as="geometry">
            <mxPoint x="384" y="400" as="sourcePoint" />
            <mxPoint x="545" y="400" as="targetPoint" />
            <mxPoint as="offset" />
          </mxGeometry>
        </mxCell>
        <mxCell id="pGWEJejXz1v_ziVK3wCz-35" value="" style="endArrow=open;startArrow=cross;endFill=0;startFill=0;endSize=8;startSize=10;html=1;rounded=0;" edge="1" parent="1">
          <mxGeometry width="160" relative="1" as="geometry">
            <mxPoint x="224.92857142857133" y="858" as="sourcePoint" />
            <mxPoint x="378.5" y="858" as="targetPoint" />
          </mxGeometry>
        </mxCell>
        <mxCell id="pGWEJejXz1v_ziVK3wCz-37" value="wsDisconnect()" style="edgeLabel;html=1;align=center;verticalAlign=middle;resizable=0;points=[];" vertex="1" connectable="0" parent="pGWEJejXz1v_ziVK3wCz-35">
          <mxGeometry x="0.0912" y="-2" relative="1" as="geometry">
            <mxPoint as="offset" />
          </mxGeometry>
        </mxCell>
        <mxCell id="pGWEJejXz1v_ziVK3wCz-38" value="unsubscribe()" style="html=1;verticalAlign=bottom;endArrow=block;curved=0;rounded=0;" edge="1" parent="1" target="pGWEJejXz1v_ziVK3wCz-44">
          <mxGeometry x="0.0683" width="80" relative="1" as="geometry">
            <mxPoint x="384" y="873.4300000000001" as="sourcePoint" />
            <mxPoint x="545" y="873.4300000000001" as="targetPoint" />
            <mxPoint as="offset" />
          </mxGeometry>
        </mxCell>
        <mxCell id="pGWEJejXz1v_ziVK3wCz-39" value="userOfflineEvent()" style="html=1;verticalAlign=bottom;endArrow=block;curved=0;rounded=0;" edge="1" parent="1">
          <mxGeometry x="0.0683" width="80" relative="1" as="geometry">
            <mxPoint x="384" y="899" as="sourcePoint" />
            <mxPoint x="545" y="899" as="targetPoint" />
            <mxPoint as="offset" />
          </mxGeometry>
        </mxCell>
        <mxCell id="pGWEJejXz1v_ziVK3wCz-41" value="backend" style="html=1;whiteSpace=wrap;" vertex="1" parent="1">
          <mxGeometry x="310" y="220" width="110" height="50" as="geometry" />
        </mxCell>
        <mxCell id="pGWEJejXz1v_ziVK3wCz-42" value="backend" style="html=1;whiteSpace=wrap;" vertex="1" parent="1">
          <mxGeometry x="320" y="230" width="110" height="50" as="geometry" />
        </mxCell>
        <mxCell id="pGWEJejXz1v_ziVK3wCz-43" value="backend" style="html=1;whiteSpace=wrap;" vertex="1" parent="1">
          <mxGeometry x="330" y="240" width="110" height="50" as="geometry" />
        </mxCell>
        <mxCell id="pGWEJejXz1v_ziVK3wCz-47" value="sendEventToAllSubs" style="html=1;verticalAlign=bottom;endArrow=block;curved=0;rounded=0;" edge="1" parent="1" source="pGWEJejXz1v_ziVK3wCz-45" target="pGWEJejXz1v_ziVK3wCz-24">
          <mxGeometry width="80" relative="1" as="geometry">
            <mxPoint x="690" y="500" as="sourcePoint" />
            <mxPoint x="770" y="500" as="targetPoint" />
          </mxGeometry>
        </mxCell>
        <mxCell id="pGWEJejXz1v_ziVK3wCz-48" value="sendEventToAllSubs" style="html=1;verticalAlign=bottom;endArrow=block;curved=0;rounded=0;" edge="1" parent="1">
          <mxGeometry width="80" relative="1" as="geometry">
            <mxPoint x="545" y="929" as="sourcePoint" />
            <mxPoint x="378.66666666666697" y="929" as="targetPoint" />
          </mxGeometry>
        </mxCell>
        <mxCell id="pGWEJejXz1v_ziVK3wCz-49" value="enterApplication" style="html=1;verticalAlign=bottom;endArrow=block;curved=0;rounded=0;" edge="1" parent="1" source="pGWEJejXz1v_ziVK3wCz-14" target="pGWEJejXz1v_ziVK3wCz-16">
          <mxGeometry width="80" relative="1" as="geometry">
            <mxPoint x="85" y="379.9999999999998" as="sourcePoint" />
            <mxPoint x="224.5" y="379.9999999999998" as="targetPoint" />
            <Array as="points">
              <mxPoint x="170" y="380" />
            </Array>
          </mxGeometry>
        </mxCell>
        <mxCell id="pGWEJejXz1v_ziVK3wCz-57" value="getInitialState()&lt;div&gt;http&lt;/div&gt;" style="html=1;verticalAlign=bottom;endArrow=block;curved=0;rounded=0;entryX=0;entryY=0;entryDx=0;entryDy=5;" edge="1" target="pGWEJejXz1v_ziVK3wCz-56" parent="1" source="pGWEJejXz1v_ziVK3wCz-16">
          <mxGeometry relative="1" as="geometry">
            <mxPoint x="310" y="495" as="sourcePoint" />
          </mxGeometry>
        </mxCell>
        <mxCell id="pGWEJejXz1v_ziVK3wCz-58" value="" style="html=1;verticalAlign=bottom;endArrow=open;dashed=1;endSize=8;curved=0;rounded=0;exitX=0;exitY=1;exitDx=0;exitDy=-5;" edge="1" source="pGWEJejXz1v_ziVK3wCz-56" parent="1" target="pGWEJejXz1v_ziVK3wCz-16">
          <mxGeometry relative="1" as="geometry">
            <mxPoint x="310" y="565" as="targetPoint" />
          </mxGeometry>
        </mxCell>
        <mxCell id="pGWEJejXz1v_ziVK3wCz-59" value="database" style="shape=umlLifeline;perimeter=lifelinePerimeter;whiteSpace=wrap;html=1;container=1;dropTarget=0;collapsible=0;recursiveResize=0;outlineConnect=0;portConstraint=eastwest;newEdgeStyle={&quot;curved&quot;:0,&quot;rounded&quot;:0};" vertex="1" parent="1">
          <mxGeometry x="650" y="300" width="100" height="700" as="geometry" />
        </mxCell>
        <mxCell id="pGWEJejXz1v_ziVK3wCz-61" value="" style="html=1;points=[[0,0,0,0,5],[0,1,0,0,-5],[1,0,0,0,5],[1,1,0,0,-5]];perimeter=orthogonalPerimeter;outlineConnect=0;targetShapes=umlLifeline;portConstraint=eastwest;newEdgeStyle={&quot;curved&quot;:0,&quot;rounded&quot;:0};" vertex="1" parent="pGWEJejXz1v_ziVK3wCz-59">
          <mxGeometry x="45" y="190" width="10" height="30" as="geometry" />
        </mxCell>
        <mxCell id="pGWEJejXz1v_ziVK3wCz-91" value="" style="html=1;points=[[0,0,0,0,5],[0,1,0,0,-5],[1,0,0,0,5],[1,1,0,0,-5]];perimeter=orthogonalPerimeter;outlineConnect=0;targetShapes=umlLifeline;portConstraint=eastwest;newEdgeStyle={&quot;curved&quot;:0,&quot;rounded&quot;:0};" vertex="1" parent="pGWEJejXz1v_ziVK3wCz-59">
          <mxGeometry x="45" y="438" width="10" height="30" as="geometry" />
        </mxCell>
        <mxCell id="pGWEJejXz1v_ziVK3wCz-62" value="SQL Query" style="html=1;verticalAlign=bottom;endArrow=block;curved=0;rounded=0;entryX=0;entryY=0;entryDx=0;entryDy=5;jumpStyle=arc;shadow=0;" edge="1" parent="1">
          <mxGeometry relative="1" as="geometry">
            <mxPoint x="390" y="500" as="sourcePoint" />
            <mxPoint x="695" y="500" as="targetPoint" />
          </mxGeometry>
        </mxCell>
        <mxCell id="pGWEJejXz1v_ziVK3wCz-63" value="" style="html=1;verticalAlign=bottom;endArrow=open;dashed=1;endSize=8;curved=0;rounded=0;jumpStyle=arc;" edge="1" source="pGWEJejXz1v_ziVK3wCz-61" parent="1">
          <mxGeometry relative="1" as="geometry">
            <mxPoint x="390" y="513" as="targetPoint" />
            <mxPoint x="695" y="513" as="sourcePoint" />
          </mxGeometry>
        </mxCell>
        <mxCell id="pGWEJejXz1v_ziVK3wCz-72" value="startTyping" style="html=1;verticalAlign=bottom;endArrow=block;curved=0;rounded=0;" edge="1" parent="1">
          <mxGeometry width="80" relative="1" as="geometry">
            <mxPoint x="87.5" y="560" as="sourcePoint" />
            <mxPoint x="220" y="560" as="targetPoint" />
          </mxGeometry>
        </mxCell>
        <mxCell id="pGWEJejXz1v_ziVK3wCz-73" value="stopTyping" style="html=1;verticalAlign=bottom;endArrow=block;curved=0;rounded=0;" edge="1" parent="1">
          <mxGeometry width="80" relative="1" as="geometry">
            <mxPoint x="87.5" y="640" as="sourcePoint" />
            <mxPoint x="220" y="640" as="targetPoint" />
          </mxGeometry>
        </mxCell>
        <mxCell id="pGWEJejXz1v_ziVK3wCz-74" value="userTypingEvent&lt;div&gt;ws&lt;/div&gt;" style="html=1;verticalAlign=bottom;endArrow=block;curved=0;rounded=0;" edge="1" parent="1">
          <mxGeometry width="80" relative="1" as="geometry">
            <mxPoint x="230" y="569" as="sourcePoint" />
            <mxPoint x="374" y="569" as="targetPoint" />
          </mxGeometry>
        </mxCell>
        <mxCell id="pGWEJejXz1v_ziVK3wCz-75" value="userTypingEvent()" style="html=1;verticalAlign=bottom;endArrow=block;curved=0;rounded=0;" edge="1" parent="1">
          <mxGeometry x="0.0683" width="80" relative="1" as="geometry">
            <mxPoint x="385" y="576" as="sourcePoint" />
            <mxPoint x="546" y="576" as="targetPoint" />
            <mxPoint as="offset" />
          </mxGeometry>
        </mxCell>
        <mxCell id="pGWEJejXz1v_ziVK3wCz-76" value="" style="html=1;points=[[0,0,0,0,5],[0,1,0,0,-5],[1,0,0,0,5],[1,1,0,0,-5]];perimeter=orthogonalPerimeter;outlineConnect=0;targetShapes=umlLifeline;portConstraint=eastwest;newEdgeStyle={&quot;curved&quot;:0,&quot;rounded&quot;:0};" vertex="1" parent="1">
          <mxGeometry x="545" y="590" width="10" height="40" as="geometry" />
        </mxCell>
        <mxCell id="pGWEJejXz1v_ziVK3wCz-77" value="sendEventToAllSubs" style="html=1;verticalAlign=bottom;endArrow=block;curved=0;rounded=0;" edge="1" parent="1" source="pGWEJejXz1v_ziVK3wCz-76">
          <mxGeometry width="80" relative="1" as="geometry">
            <mxPoint x="690" y="660" as="sourcePoint" />
            <mxPoint x="384" y="610" as="targetPoint" />
          </mxGeometry>
        </mxCell>
        <mxCell id="pGWEJejXz1v_ziVK3wCz-78" value="userStopTypingEvent&lt;div&gt;ws&lt;/div&gt;" style="html=1;verticalAlign=bottom;endArrow=block;curved=0;rounded=0;" edge="1" parent="1">
          <mxGeometry width="80" relative="1" as="geometry">
            <mxPoint x="230" y="655" as="sourcePoint" />
            <mxPoint x="374" y="655" as="targetPoint" />
          </mxGeometry>
        </mxCell>
        <mxCell id="pGWEJejXz1v_ziVK3wCz-79" value="userStopTypingEvent()" style="html=1;verticalAlign=bottom;endArrow=block;curved=0;rounded=0;" edge="1" parent="1">
          <mxGeometry x="0.0648" width="80" relative="1" as="geometry">
            <mxPoint x="385" y="662" as="sourcePoint" />
            <mxPoint x="546" y="662" as="targetPoint" />
            <mxPoint as="offset" />
          </mxGeometry>
        </mxCell>
        <mxCell id="pGWEJejXz1v_ziVK3wCz-80" value="sendEventToAllSubs" style="html=1;verticalAlign=bottom;endArrow=block;curved=0;rounded=0;" edge="1" parent="1">
          <mxGeometry width="80" relative="1" as="geometry">
            <mxPoint x="545" y="696" as="sourcePoint" />
            <mxPoint x="384" y="696" as="targetPoint" />
          </mxGeometry>
        </mxCell>
        <mxCell id="pGWEJejXz1v_ziVK3wCz-84" value="sendMessage" style="html=1;verticalAlign=bottom;endArrow=block;curved=0;rounded=0;" edge="1" parent="1">
          <mxGeometry width="80" relative="1" as="geometry">
            <mxPoint x="87.5" y="721" as="sourcePoint" />
            <mxPoint x="220" y="721" as="targetPoint" />
          </mxGeometry>
        </mxCell>
        <mxCell id="pGWEJejXz1v_ziVK3wCz-85" value="sendMessageEvent&lt;div&gt;ws&lt;/div&gt;" style="html=1;verticalAlign=bottom;endArrow=block;curved=0;rounded=0;" edge="1" parent="1">
          <mxGeometry width="80" relative="1" as="geometry">
            <mxPoint x="230" y="728.71" as="sourcePoint" />
            <mxPoint x="374" y="728.71" as="targetPoint" />
          </mxGeometry>
        </mxCell>
        <mxCell id="pGWEJejXz1v_ziVK3wCz-88" value="sendMessageEvent()" style="html=1;verticalAlign=bottom;endArrow=block;curved=0;rounded=0;" edge="1" parent="1">
          <mxGeometry x="0.0648" width="80" relative="1" as="geometry">
            <mxPoint x="391" y="772.9999999999998" as="sourcePoint" />
            <mxPoint x="549.5000000000002" y="772.9999999999998" as="targetPoint" />
            <mxPoint as="offset" />
          </mxGeometry>
        </mxCell>
        <mxCell id="pGWEJejXz1v_ziVK3wCz-89" value="sendEventToAllSubs()" style="html=1;verticalAlign=bottom;endArrow=block;curved=0;rounded=0;" edge="1" parent="1">
          <mxGeometry width="80" relative="1" as="geometry">
            <mxPoint x="545" y="810" as="sourcePoint" />
            <mxPoint x="384" y="810" as="targetPoint" />
          </mxGeometry>
        </mxCell>
        <mxCell id="pGWEJejXz1v_ziVK3wCz-90" value="newMessageEvent" style="html=1;verticalAlign=bottom;endArrow=block;curved=0;rounded=0;" edge="1" parent="1">
          <mxGeometry width="80" relative="1" as="geometry">
            <mxPoint x="371" y="820" as="sourcePoint" />
            <mxPoint x="230" y="820" as="targetPoint" />
          </mxGeometry>
        </mxCell>
        <mxCell id="pGWEJejXz1v_ziVK3wCz-93" value="" style="html=1;verticalAlign=bottom;endArrow=open;dashed=1;endSize=8;curved=0;rounded=0;exitX=0;exitY=1;exitDx=0;exitDy=-5;" edge="1" parent="1" target="pGWEJejXz1v_ziVK3wCz-94">
          <mxGeometry x="0.0049" relative="1" as="geometry">
            <mxPoint x="383.9999999999998" y="757" as="targetPoint" />
            <mxPoint x="695" y="757" as="sourcePoint" />
            <mxPoint as="offset" />
          </mxGeometry>
        </mxCell>
        <mxCell id="pGWEJejXz1v_ziVK3wCz-92" value="SQL Query" style="html=1;verticalAlign=bottom;endArrow=block;curved=0;rounded=0;entryX=0;entryY=0;entryDx=0;entryDy=5;exitX=1;exitY=0;exitDx=0;exitDy=5;exitPerimeter=0;" edge="1" target="pGWEJejXz1v_ziVK3wCz-91" parent="1" source="pGWEJejXz1v_ziVK3wCz-94">
          <mxGeometry relative="1" as="geometry">
            <mxPoint x="625" y="735" as="sourcePoint" />
          </mxGeometry>
        </mxCell>
      </root>
    </mxGraphModel>
  </diagram>
</mxfile>
